<?xml version="1.0" encoding="UTF-8" standalone="no"?>
<svg
   xmlns:dc="http://purl.org/dc/elements/1.1/"
   xmlns:cc="http://creativecommons.org/ns#"
   xmlns:rdf="http://www.w3.org/1999/02/22-rdf-syntax-ns#"
   xmlns:svg="http://www.w3.org/2000/svg"
   xmlns="http://www.w3.org/2000/svg"
   xmlns:sodipodi="http://sodipodi.sourceforge.net/DTD/sodipodi-0.dtd"
   xmlns:inkscape="http://www.inkscape.org/namespaces/inkscape"
   version="1.1"
   id="Layer_1"
   x="0px"
   y="0px"
   width="100px"
   height="100px"
   viewBox="0 0 100 100"
   enable-background="new 0 0 100 100"
   xml:space="preserve"
   inkscape:version="0.48.2 r9819"
   sodipodi:docname="transmit.svg"><metadata
   id="metadata2993"><rdf:RDF><cc:Work
       rdf:about=""><dc:format>image/svg+xml</dc:format><dc:type
         rdf:resource="http://purl.org/dc/dcmitype/StillImage" /><dc:title></dc:title></cc:Work></rdf:RDF></metadata><defs
   id="defs2991" /><sodipodi:namedview
   pagecolor="#ffffff"
   bordercolor="#666666"
   borderopacity="1"
   objecttolerance="10"
   gridtolerance="10"
   guidetolerance="10"
   inkscape:pageopacity="0"
   inkscape:pageshadow="2"
   inkscape:window-width="889"
   inkscape:window-height="683"
   id="namedview2989"
   showgrid="false"
   inkscape:zoom="4.19"
   inkscape:cx="50"
   inkscape:cy="50"
   inkscape:window-x="1330"
   inkscape:window-y="284"
   inkscape:window-maximized="0"
   inkscape:current-layer="Layer_1" />
<path
   d="m 61.187,41.362196 c 5.617,-5.616 5.616,-14.757 -10e-4,-20.374 -1.651,-2.293 1.261,-3.371 2.314,-2.316 6.896,6.895 6.896,18.111 10e-4,25.004 -1.054,1.055 -3.755,-0.012 -2.314,-2.314 z m -20.374,-20.375 c -5.618,5.617 -5.619,14.756 -0.001,20.374 2.085,2.827 -1.259,3.371 -2.314,2.315 -6.894,-6.894 -6.894,-18.111 0,-25.004 1.054,-1.055 4.416,-0.741 2.315,2.315 z m -7.586,-7.587 c -9.801,9.8 -9.801,25.747 0,35.547 2.034,2.035 0.186,4.725 -2.27,2.269 -11.051,-11.05 -11.051,-29.033 10e-4,-40.085 2.456,-2.4549997 4.303,0.234 2.269,2.269 z m 35.546,35.547 c 9.801,-9.801 9.801,-25.746 0,-35.546 -2.034,-2.035 0.116,-4.2159997 2.269,-2.269 11.052,11.052 11.052,29.033 0,40.085 -2.455,2.455 -4.303,-0.235 -2.269,-2.27 z"
   id="path2987"
   inkscape:connector-curvature="0"
   sodipodi:nodetypes="ccccccccccccccccccsc" />
<path
   d="m 50.900875,96.611981 c 3.930103,0 7.581956,-2.6916 7.581956,-2.6916 L 58.323377,49.785244 50.896635,30.795892 43.473781,49.784891 43.31928,93.917901 c 3.54e-4,3.5e-4 3.653264,2.69443 7.581595,2.69408 z m -2.37022,-57.615064 c 2.368808,0.81388 2.368808,0.81388 4.736555,0.0018 l 4.215417,10.787219 c 0,0 -0.614476,0.64771 -2.474874,1.33431 -0.672458,0.251024 -1.480327,0.335522 -2.326734,0.42179 l -3.474016,0.0064 C 48.325595,51.465331 47.479188,51.399571 46.792587,51.12097 46.139574,50.856867 44.31241,49.789842 44.31241,49.789842 l 4.218246,-10.792923 z"
   id="path3"
   inkscape:connector-curvature="0" /></svg>